<svg xmlns="http://www.w3.org/2000/svg" viewBox="0 0 578.32 103.54" class="svg-logo">
    <title>Kamma</title>
    <polygon points="76.92 0 54.73 0 17.75 46.45 17.75 0 0 0 0 103.54 17.75 103.54 17.75 56.8 58.43 103.54 81.95 103.54 36.39 50.88 76.92 0" fill="#34485c"></polygon>
    <polygon points="269.69 52.07 235.97 0 219.55 0 219.55 103.54 237.3 103.54 237.3 34.02 269.69 83.28 302.09 34.02 302.09 103.54 319.84 103.54 319.84 0 303.42 0 269.69 52.07" fill="#34485c"></polygon>
    <polygon points="404.26 52.07 370.53 0 354.12 0 354.12 103.54 371.87 103.54 371.87 34.02 404.26 83.28 436.65 34.02 436.65 103.54 454.4 103.54 454.4 0 437.99 0 404.26 52.07" fill="#34485c"></polygon>
    <path d="M137.76,0,97.53,103.54h8.29a14,14,0,0,0,13.07-9l27.9-72.24,27.89,72.24a14,14,0,0,0,13.08,9H196L155.81,0Z" fill="#34485c"></path>
    <path d="M538.09,0H520L479.81,103.54h8.29a14,14,0,0,0,13.07-9l27.9-72.24L557,94.58a14,14,0,0,0,13.08,9h8.28Z" fill="#34485c"></path>
</svg>